<mxfile host="app.diagrams.net" modified="2024-07-22T20:06:06.910Z" agent="Mozilla/5.0 (Windows NT 10.0; Win64; x64) AppleWebKit/537.36 (KHTML, like Gecko) Chrome/126.0.0.0 Safari/537.36 Edg/126.0.0.0" etag="K-6svOXa3g13YzTWtIw6" version="24.7.3" type="github">
  <diagram name="Page-1" id="ZBIIZD1raV5Hpa2IU3Zq">
    <mxGraphModel dx="2482" dy="753" grid="1" gridSize="10" guides="1" tooltips="1" connect="1" arrows="1" fold="1" page="1" pageScale="1" pageWidth="1169" pageHeight="827" math="0" shadow="0">
      <root>
        <mxCell id="0" />
        <mxCell id="1" parent="0" />
        <mxCell id="_30iAetLbzobpEsazLh9-12" style="rounded=0;orthogonalLoop=1;jettySize=auto;html=1;exitX=0;exitY=0.5;exitDx=0;exitDy=0;entryX=1;entryY=0.5;entryDx=0;entryDy=0;startArrow=classic;startFill=1;endArrow=none;endFill=0;fontSize=16;" edge="1" parent="1" source="_30iAetLbzobpEsazLh9-1" target="_30iAetLbzobpEsazLh9-5">
          <mxGeometry relative="1" as="geometry" />
        </mxCell>
        <mxCell id="_30iAetLbzobpEsazLh9-18" style="rounded=0;orthogonalLoop=1;jettySize=auto;html=1;entryX=0;entryY=0.5;entryDx=0;entryDy=0;fontSize=16;" edge="1" parent="1" source="_30iAetLbzobpEsazLh9-1" target="_30iAetLbzobpEsazLh9-17">
          <mxGeometry relative="1" as="geometry" />
        </mxCell>
        <mxCell id="_30iAetLbzobpEsazLh9-1" value="warframedb-service&lt;div style=&quot;font-size: 16px;&quot;&gt;(data-collector-&lt;span style=&quot;background-color: initial;&quot;&gt;service)&lt;/span&gt;&lt;/div&gt;" style="rounded=0;whiteSpace=wrap;html=1;fontSize=16;" vertex="1" parent="1">
          <mxGeometry x="-820" y="310" width="200" height="60" as="geometry" />
        </mxCell>
        <mxCell id="_30iAetLbzobpEsazLh9-24" style="rounded=0;orthogonalLoop=1;jettySize=auto;html=1;exitX=0.5;exitY=1;exitDx=0;exitDy=0;fontSize=16;" edge="1" parent="1" source="_30iAetLbzobpEsazLh9-2" target="_30iAetLbzobpEsazLh9-22">
          <mxGeometry relative="1" as="geometry" />
        </mxCell>
        <mxCell id="_30iAetLbzobpEsazLh9-2" value="schedule-service" style="rounded=0;whiteSpace=wrap;html=1;fontSize=16;" vertex="1" parent="1">
          <mxGeometry x="-500" y="400" width="160" height="60" as="geometry" />
        </mxCell>
        <mxCell id="_30iAetLbzobpEsazLh9-28" style="rounded=0;orthogonalLoop=1;jettySize=auto;html=1;exitX=1;exitY=0.75;exitDx=0;exitDy=0;fontSize=16;" edge="1" parent="1" source="_30iAetLbzobpEsazLh9-3" target="_30iAetLbzobpEsazLh9-27">
          <mxGeometry relative="1" as="geometry" />
        </mxCell>
        <mxCell id="_30iAetLbzobpEsazLh9-3" value="market-service" style="rounded=0;whiteSpace=wrap;html=1;fontSize=16;" vertex="1" parent="1">
          <mxGeometry x="-810" y="460" width="120" height="60" as="geometry" />
        </mxCell>
        <mxCell id="_30iAetLbzobpEsazLh9-29" style="rounded=0;orthogonalLoop=1;jettySize=auto;html=1;entryX=0;entryY=0.5;entryDx=0;entryDy=0;fontSize=16;" edge="1" parent="1" source="_30iAetLbzobpEsazLh9-4" target="_30iAetLbzobpEsazLh9-27">
          <mxGeometry relative="1" as="geometry" />
        </mxCell>
        <mxCell id="_30iAetLbzobpEsazLh9-4" value="order-service" style="rounded=0;whiteSpace=wrap;html=1;fontSize=16;" vertex="1" parent="1">
          <mxGeometry x="-810" y="620" width="120" height="60" as="geometry" />
        </mxCell>
        <mxCell id="_30iAetLbzobpEsazLh9-14" style="rounded=0;orthogonalLoop=1;jettySize=auto;html=1;entryX=0;entryY=0.5;entryDx=0;entryDy=0;fontSize=16;" edge="1" parent="1" source="_30iAetLbzobpEsazLh9-5" target="_30iAetLbzobpEsazLh9-3">
          <mxGeometry relative="1" as="geometry" />
        </mxCell>
        <mxCell id="_30iAetLbzobpEsazLh9-16" style="rounded=0;orthogonalLoop=1;jettySize=auto;html=1;exitX=1;exitY=0.5;exitDx=0;exitDy=0;entryX=0;entryY=0.5;entryDx=0;entryDy=0;fontSize=16;" edge="1" parent="1" source="_30iAetLbzobpEsazLh9-5" target="_30iAetLbzobpEsazLh9-4">
          <mxGeometry relative="1" as="geometry" />
        </mxCell>
        <mxCell id="_30iAetLbzobpEsazLh9-5" value="api-gateway" style="rounded=0;whiteSpace=wrap;html=1;fontSize=16;" vertex="1" parent="1">
          <mxGeometry x="-1030" y="460" width="120" height="60" as="geometry" />
        </mxCell>
        <mxCell id="_30iAetLbzobpEsazLh9-13" style="rounded=0;orthogonalLoop=1;jettySize=auto;html=1;entryX=0;entryY=0.5;entryDx=0;entryDy=0;fontSize=16;" edge="1" parent="1" source="_30iAetLbzobpEsazLh9-6" target="_30iAetLbzobpEsazLh9-5">
          <mxGeometry relative="1" as="geometry" />
        </mxCell>
        <mxCell id="_30iAetLbzobpEsazLh9-6" value="Actor" style="shape=umlActor;verticalLabelPosition=bottom;verticalAlign=top;html=1;outlineConnect=0;fontSize=16;" vertex="1" parent="1">
          <mxGeometry x="-1160" y="460" width="30" height="60" as="geometry" />
        </mxCell>
        <mxCell id="_30iAetLbzobpEsazLh9-19" style="rounded=0;orthogonalLoop=1;jettySize=auto;html=1;endArrow=none;endFill=0;startArrow=classic;startFill=1;fontSize=16;" edge="1" parent="1" source="_30iAetLbzobpEsazLh9-8" target="_30iAetLbzobpEsazLh9-1">
          <mxGeometry relative="1" as="geometry" />
        </mxCell>
        <mxCell id="_30iAetLbzobpEsazLh9-8" value="Warframe offical api" style="sketch=0;aspect=fixed;pointerEvents=1;shadow=0;dashed=0;html=1;strokeColor=none;labelPosition=center;verticalLabelPosition=top;verticalAlign=bottom;align=center;shape=mxgraph.mscae.enterprise.website_generic;fillColor=#7D7D7D;fontSize=16;" vertex="1" parent="1">
          <mxGeometry x="-770" y="120" width="113.63" height="100" as="geometry" />
        </mxCell>
        <mxCell id="_30iAetLbzobpEsazLh9-11" value="Warframe market api" style="sketch=0;aspect=fixed;pointerEvents=1;shadow=0;dashed=0;html=1;strokeColor=none;labelPosition=center;verticalLabelPosition=top;verticalAlign=bottom;align=center;shape=mxgraph.mscae.enterprise.website_generic;fillColor=#7D7D7D;fontSize=16;" vertex="1" parent="1">
          <mxGeometry x="-470" y="150" width="113.63" height="100" as="geometry" />
        </mxCell>
        <mxCell id="_30iAetLbzobpEsazLh9-17" value="warframe item db" style="shape=datastore;whiteSpace=wrap;html=1;fontSize=16;fillColor=#dae8fc;strokeColor=#6c8ebf;" vertex="1" parent="1">
          <mxGeometry x="-605" y="140" width="80" height="90" as="geometry" />
        </mxCell>
        <mxCell id="_30iAetLbzobpEsazLh9-20" style="rounded=0;orthogonalLoop=1;jettySize=auto;html=1;exitX=1;exitY=0.5;exitDx=0;exitDy=0;entryX=0;entryY=0.5;entryDx=0;entryDy=0;entryPerimeter=0;fontSize=16;" edge="1" parent="1" source="_30iAetLbzobpEsazLh9-3" target="_30iAetLbzobpEsazLh9-11">
          <mxGeometry relative="1" as="geometry" />
        </mxCell>
        <mxCell id="_30iAetLbzobpEsazLh9-25" style="rounded=0;orthogonalLoop=1;jettySize=auto;html=1;endArrow=none;endFill=0;startArrow=classic;startFill=1;fontSize=16;" edge="1" parent="1" source="_30iAetLbzobpEsazLh9-22" target="_30iAetLbzobpEsazLh9-4">
          <mxGeometry relative="1" as="geometry" />
        </mxCell>
        <mxCell id="_30iAetLbzobpEsazLh9-22" value="" style="shape=image;verticalLabelPosition=bottom;labelBackgroundColor=default;verticalAlign=top;aspect=fixed;imageAspect=0;image=https://www.ovhcloud.com/sites/default/files/styles/text_media_horizontal/public/2021-09/ECX-1909_Hero_Kafka_600x400%402x-1.png;fontSize=16;" vertex="1" parent="1">
          <mxGeometry x="-270" y="620" width="197.8" height="76.5" as="geometry" />
        </mxCell>
        <mxCell id="_30iAetLbzobpEsazLh9-23" style="rounded=0;orthogonalLoop=1;jettySize=auto;html=1;entryX=0.458;entryY=1.01;entryDx=0;entryDy=0;entryPerimeter=0;fontSize=16;" edge="1" parent="1" source="_30iAetLbzobpEsazLh9-2" target="_30iAetLbzobpEsazLh9-11">
          <mxGeometry relative="1" as="geometry" />
        </mxCell>
        <mxCell id="_30iAetLbzobpEsazLh9-27" value="warframe market db" style="shape=datastore;whiteSpace=wrap;html=1;fontSize=16;fillColor=#dae8fc;strokeColor=#6c8ebf;" vertex="1" parent="1">
          <mxGeometry x="-230" y="470" width="80" height="90" as="geometry" />
        </mxCell>
        <mxCell id="_30iAetLbzobpEsazLh9-33" value="Discovery-server&lt;div&gt;(Eureka server)&lt;/div&gt;" style="rounded=0;whiteSpace=wrap;html=1;gradientColor=default;fillColor=none;strokeWidth=3;labelPosition=center;verticalLabelPosition=middle;align=left;verticalAlign=top;fontStyle=1;fontSize=21;labelBackgroundColor=none;" vertex="1" parent="1">
          <mxGeometry x="-1050" y="270" width="720" height="440" as="geometry" />
        </mxCell>
        <mxCell id="_30iAetLbzobpEsazLh9-35" value="Backlog" style="swimlane;fontStyle=0;childLayout=stackLayout;horizontal=1;startSize=30;horizontalStack=0;resizeParent=1;resizeParentMax=0;resizeLast=0;collapsible=1;marginBottom=0;whiteSpace=wrap;html=1;" vertex="1" parent="1">
          <mxGeometry x="-220" y="90" width="140" height="150" as="geometry" />
        </mxCell>
        <mxCell id="_30iAetLbzobpEsazLh9-36" value="Market socket service" style="text;strokeColor=none;fillColor=none;align=left;verticalAlign=middle;spacingLeft=4;spacingRight=4;overflow=hidden;points=[[0,0.5],[1,0.5]];portConstraint=eastwest;rotatable=0;whiteSpace=wrap;html=1;" vertex="1" parent="_30iAetLbzobpEsazLh9-35">
          <mxGeometry y="30" width="140" height="30" as="geometry" />
        </mxCell>
        <mxCell id="_30iAetLbzobpEsazLh9-37" value="W,Market crud service" style="text;strokeColor=none;fillColor=none;align=left;verticalAlign=middle;spacingLeft=4;spacingRight=4;overflow=hidden;points=[[0,0.5],[1,0.5]];portConstraint=eastwest;rotatable=0;whiteSpace=wrap;html=1;" vertex="1" parent="_30iAetLbzobpEsazLh9-35">
          <mxGeometry y="60" width="140" height="30" as="geometry" />
        </mxCell>
        <mxCell id="_30iAetLbzobpEsazLh9-39" value="Email notification" style="text;strokeColor=none;fillColor=none;align=left;verticalAlign=middle;spacingLeft=4;spacingRight=4;overflow=hidden;points=[[0,0.5],[1,0.5]];portConstraint=eastwest;rotatable=0;whiteSpace=wrap;html=1;" vertex="1" parent="_30iAetLbzobpEsazLh9-35">
          <mxGeometry y="90" width="140" height="30" as="geometry" />
        </mxCell>
        <mxCell id="_30iAetLbzobpEsazLh9-38" value="UI" style="text;strokeColor=none;fillColor=none;align=left;verticalAlign=middle;spacingLeft=4;spacingRight=4;overflow=hidden;points=[[0,0.5],[1,0.5]];portConstraint=eastwest;rotatable=0;whiteSpace=wrap;html=1;" vertex="1" parent="_30iAetLbzobpEsazLh9-35">
          <mxGeometry y="120" width="140" height="30" as="geometry" />
        </mxCell>
        <mxCell id="_30iAetLbzobpEsazLh9-42" value="" style="shape=image;verticalLabelPosition=bottom;labelBackgroundColor=default;verticalAlign=top;aspect=fixed;imageAspect=0;image=https://www.svgrepo.com/show/376350/spring.svg;" vertex="1" parent="1">
          <mxGeometry x="-1050" y="120" width="130" height="130" as="geometry" />
        </mxCell>
        <mxCell id="_30iAetLbzobpEsazLh9-43" value="" style="shape=image;verticalLabelPosition=bottom;labelBackgroundColor=default;verticalAlign=top;aspect=fixed;imageAspect=0;image=https://1000logos.net/wp-content/uploads/2020/09/Warframe-Emblem.png;" vertex="1" parent="1">
          <mxGeometry x="-138" y="747" width="137.53" height="80" as="geometry" />
        </mxCell>
      </root>
    </mxGraphModel>
  </diagram>
</mxfile>
